<svg width="40" height="40" viewBox="0 0 24 24" fill="none" xmlns="http://www.w3.org/2000/svg">
    <path d="M12 .3C5.4.3 0 5.9 0 12.5c0 5.4 3.4 10 8.2 11.6.6.1.8-.3.8-.6v-2.3c-3.3.7-4-1.6-4-1.6-.5-1.3-1.2-1.7-1.2-1.7-.9-.7.1-.7.1-.7 1 .1 1.5 1.1 1.5 1.1.9 1.5 2.3 1.1 2.9.9.1-.6.3-1.1.5-1.4-2.6-.3-5.4-1.3-5.4-5.7 0-1.3.5-2.3 1.2-3.1-.1-.3-.5-1.4.1-3 0 0 1-.3 3.3 1.2a11 11 0 0 1 6.1 0c2.2-1.5 3.3-1.2 3.3-1.2.6 1.6.2 2.7.1 3 .7.7 1.2 1.7 1.2 3.1 0 4.5-2.8 5.5-5.5 5.7.3.3.6.8.6 1.6v2.4c0 .3.2.7.8.6 4.8-1.6 8.2-6.1 8.2-11.6 0-6.6-5.4-12.2-12-12.2z" fill="#333"/>
</svg>
